{"title":"Supernatural S06E13 HDTV XviD-2HD {TheCloon}","uid":6169912,"size":366480446,"categoryP":"video","categoryS":"tv_shows","magnet":"?xt=urn:btih:cf129a42e47cdc30c6fa13c08c8c60cbf05b8fc7&amp;dn=Supernatural+S06E13+HDTV+XviD-2HD+%7BTheCloon%7D&amp;tr=udp%3A%2F%2Ftracker.openbittorrent.com%3A80&amp;tr=udp%3A%2F%2Fopen.demonii.com%3A1337&amp;tr=udp%3A%2F%2Ftracker.coppersurfer.tk%3A6969&amp;tr=udp%3A%2F%2Fexodus.desync.com%3A6969","seeders":1,"leechers":0,"uploader":"TheCloon","files":4,"time":1297529736,"description":"###\n\nSupernatural S06E13 HDTV XviD-2HD\n\n###\n\nPlot:\n\n117: 6x13 -- Unforgiven (Feb/11/2011)\nSam is lured back to a Rhode Island town where he and Samuel handled a case a year ago... and the monster is still at large, seeking revenge. \n\n###\n\n[code]\n\nFormat                           : AVI\nFormat/Info                      : Audio Video Interleave\nFile size                        : 349 MiB\nDuration                         : 40mn 11s\nOverall bit rate                 : 1 216 Kbps\nWriting application              : MEncoder SVN-r32669-4.3.2\nWriting library                  : MPlayer\n\nVideo\nID                               : 0\nFormat                           : MPEG-4 Visual\nFormat profile                   : Advanced Simple@L5\nFormat settings, BVOP            : 1\nFormat settings, QPel            : No\nFormat settings, GMC             : No warppoints\nFormat settings, Matrix          : Default (H.263)\nCodec ID                         : XVID\nCodec ID/Hint                    : XviD\nDuration                         : 40mn 11s\nBit rate                         : 1 074 Kbps\nWidth                            : 624 pixels\nHeight                           : 352 pixels\nDisplay aspect ratio             : 16:9\nFrame rate                       : 23.976 fps\nColor space                      : YUV\nChroma subsampling               : 4:2:0\nBit depth                        : 8 bits\nScan type                        : Progressive\nCompression mode                 : Lossy\nBits/(Pixel*Frame)               : 0.204\nStream size                      : 309 MiB (88%)\nWriting library                  : XviD 1.2.1 (UTC 2008-12-04)\n\nAudio\nID                               : 1\nFormat                           : MPEG Audio\nFormat version                   : Version 1\nFormat profile                   : Layer 3\nMode                             : Joint stereo\nMode extension                   : MS Stereo\nCodec ID                         : 55\nCodec ID/Hint                    : MP3\nDuration                         : 40mn 11s\nBit rate mode                    : Variable\nBit rate                         : 128 Kbps\nChannel(s)                       : 2 channels\nSampling rate                    : 48.0 KHz\nCompression mode                 : Lossy\nStream size                      : 37.0 MiB (11%)\nAlignment                        : Aligned on interleaves\nInterleave, duration             : 24 ms (0.58 video frame)\nInterleave, preload duration     : 519 ms\n[/code]\n","torrent":{"xt":"urn:btih:cf129a42e47cdc30c6fa13c08c8c60cbf05b8fc7","amp;dn":"Supernatural+S06E13+HDTV+XviD-2HD+%7BTheCloon%7D","amp;tr":["udp%3A%2F%2Ftracker.openbittorrent.com%3A80","udp%3A%2F%2Fopen.demonii.com%3A1337","udp%3A%2F%2Ftracker.coppersurfer.tk%3A6969","udp%3A%2F%2Fexodus.desync.com%3A6969"],"infoHash":"cf129a42e47cdc30c6fa13c08c8c60cbf05b8fc7","infoHashBuffer":{"type":"Buffer","data":[207,18,154,66,228,124,220,48,198,250,19,192,140,140,96,203,240,91,143,199]},"announce":[],"urlList":[]}}